# xmcd
#
# Track frame offsets:
#	150
#	16904
#	33300
#	50967
#	66150
#	80124
#	97029
#	114252
#	129449
#	146366
#	162519
#
# Disc length: 2402 seconds
#
# Revision: 2
# Processed by: cddbd v1.5.2PL0 Copyright (c) Steve Scherf et al.
# Submitted via: EZCDAudioConverter 7.1.1.1
#
DISCID=9609600b
DTITLE=Big and Rich - Gravity
DYEAR=2014
DGENRE=Country
TTITLE0=Look At You
TTITLE1=Lovin' Lately
TTITLE2=Gravity
TTITLE3=Brand New Buzz
TTITLE4=Rollin' Along
TTITLE5=Run Away With You
TTITLE6=Lose A Little Sleep
TTITLE7=Don't Wake Me Up
TTITLE8=That Kind Of Town
TTITLE9=Thank God For Pain
TTITLE10=I Came To Git Down
EXTD=
EXTT0=
EXTT1=
EXTT2=
EXTT3=
EXTT4=
EXTT5=
EXTT6=
EXTT7=
EXTT8=
EXTT9=
EXTT10=
PLAYORDER=
